<mxfile host="app.diagrams.net" modified="2023-09-15T23:55:05.246Z" agent="Mozilla/5.0 (Windows NT 10.0; Win64; x64) AppleWebKit/537.36 (KHTML, like Gecko) Chrome/116.0.0.0 Safari/537.36 Edg/116.0.1938.76" version="21.7.5" etag="IaZiH0gFl7AF9hoStDs1" type="github">
  <diagram name="PÃ¡gina-1" id="9hX6RVezIqviQvHNNBv8">
    <mxGraphModel>
      <root>
        <mxCell id="0" />
        <mxCell id="1" parent="0" />
      </root>
    </mxGraphModel>
  </diagram>
</mxfile>
